<?xml version="1.0" encoding="UTF-8" standalone="no"?>
<!DOCTYPE svg PUBLIC "-//W3C//DTD SVG 1.1//EN"
 "http://www.w3.org/Graphics/SVG/1.1/DTD/svg11.dtd">
<!-- Generated by graphviz version 2.26.3 (20100126.1600)
 -->
<!-- Title: nodeset10945 Pages: 1 -->
<svg width="314pt" height="230pt"
 viewBox="0.00 0.00 314.00 230.00" xmlns="http://www.w3.org/2000/svg" xmlns:xlink="http://www.w3.org/1999/xlink">
<g id="graph1" class="graph" transform="scale(1 1) rotate(0) translate(4 226)">
<title>nodeset10945</title>
<polygon fill="white" stroke="white" points="-4,5 -4,-226 311,-226 311,5 -4,5"/>
<!-- 259739 -->
<g id="node1" class="node"><title>259739</title>
<polygon fill="#ebf3ff" stroke="#6666cc" points="146,-208 7.10543e-14,-208 0,-172 146,-172 146,-208"/>
<text text-anchor="middle" x="73" y="-195" font-family="FreeSans" font-size="10.00">[Find agreeable meeting date]</text>
<text text-anchor="middle" x="73" y="-181" font-family="FreeSans" font-size="10.00">is a goal</text>
</g>
<!-- 259742 -->
<g id="node4" class="node"><title>259742</title>
<polygon fill="#e6ffe6" stroke="#66cc66" points="154,-122 63.7742,-104 154,-86 244.226,-104 154,-122"/>
<text text-anchor="middle" x="154" y="-102" font-family="FreeSans" font-size="10.00">PracticalReasoning</text>
</g>
<!-- 259739&#45;&gt;259742 -->
<g id="edge4" class="edge"><title>259739&#45;&gt;259742</title>
<path fill="none" stroke="black" d="M90.178,-171.762C102.56,-158.615 119.353,-140.785 132.606,-126.715"/>
<polygon fill="black" stroke="black" points="135.245,-129.017 139.554,-119.338 130.15,-124.218 135.245,-129.017"/>
</g>
<!-- 259740 -->
<g id="node2" class="node"><title>259740</title>
<polygon fill="#ebf3ff" stroke="#6666cc" points="306,-222 164,-222 164,-158 306,-158 306,-222"/>
<text text-anchor="middle" x="235" y="-209" font-family="FreeSans" font-size="10.00">[Find agreeable meeting date</text>
<text text-anchor="middle" x="235" y="-195" font-family="FreeSans" font-size="10.00">by talking to initiator] will</text>
<text text-anchor="middle" x="235" y="-181" font-family="FreeSans" font-size="10.00">realize [Find agreeable</text>
<text text-anchor="middle" x="235" y="-167" font-family="FreeSans" font-size="10.00">meeting date]</text>
</g>
<!-- 259740&#45;&gt;259742 -->
<g id="edge6" class="edge"><title>259740&#45;&gt;259742</title>
<path fill="none" stroke="black" d="M204.839,-157.977C195.14,-147.679 184.593,-136.482 175.634,-126.969"/>
<polygon fill="black" stroke="black" points="177.938,-124.311 168.534,-119.431 172.842,-129.11 177.938,-124.311"/>
</g>
<!-- 259741 -->
<g id="node3" class="node"><title>259741</title>
<polygon fill="#ebf3ff" stroke="#6666cc" points="230,-50 78,-50 78,-2.84217e-14 230,-1.06581e-14 230,-50"/>
<text text-anchor="middle" x="154" y="-37" font-family="FreeSans" font-size="10.00">We should perform action [Find</text>
<text text-anchor="middle" x="154" y="-23" font-family="FreeSans" font-size="10.00">agreeable meeting date by</text>
<text text-anchor="middle" x="154" y="-9" font-family="FreeSans" font-size="10.00">talking to initiator]</text>
</g>
<!-- 259742&#45;&gt;259741 -->
<g id="edge2" class="edge"><title>259742&#45;&gt;259741</title>
<path fill="none" stroke="black" d="M154,-85.6772C154,-78.0766 154,-68.9908 154,-60.1933"/>
<polygon fill="black" stroke="black" points="157.5,-60.1046 154,-50.1046 150.5,-60.1047 157.5,-60.1046"/>
</g>
</g>
</svg>
